Coordinates
version=1
nRows=10
nColumns=63
inDegrees=yes

Units are S.I. units (second, meters, Newtons, ...)
If the header above contains a line with 'inDegrees', this indicates whether rotational values are in degrees (yes) or radians (no).

endheader
time	pelvis_tilt	pelvis_list	pelvis_rotation	pelvis_tx	pelvis_ty	pelvis_tz	hip_flexion_r	hip_adduction_r	hip_rotation_r	knee_angle_r	knee_angle_r_beta	ankle_angle_r	subtalar_angle_r	mtp_angle_r	hip_flexion_l	hip_adduction_l	hip_rotation_l	knee_angle_l	knee_angle_l_beta	ankle_angle_l	subtalar_angle_l	mtp_angle_l	L5_S1_Flex_Ext	L5_S1_Lat_Bending	L5_S1_axial_rotation	L4_L5_Flex_Ext	L4_L5_Lat_Bending	L4_L5_axial_rotation	L3_L4_Flex_Ext	L3_L4_Lat_Bending	L3_L4_axial_rotation	L2_L3_Flex_Ext	L2_L3_Lat_Bending	L2_L3_axial_rotation	L1_L2_Flex_Ext	L1_L2_Lat_Bending	L1_L2_axial_rotation	L1_T12_Flex_Ext	L1_T12_Lat_Bending	L1_T12_axial_rotation	Abs_r3	Abs_r2	Abs_r1	Abs_t1	Abs_t2	neck_flexion	neck_bending	neck_rotation	arm_flex_r	arm_add_r	arm_rot_r	elbow_flex_r	pro_sup_r	wrist_flex_r	wrist_dev_r	arm_flex_l	arm_add_l	arm_rot_l	elbow_flex_l	pro_sup_l	wrist_flex_l	wrist_dev_l
      1.76470588	    -27.99308270	    -26.00482678	     74.49605692	      0.09702367	      0.99618430	      0.43391733	     24.05662992	    -17.28337718	     26.48923103	      0.25643545	      0.00447564	     28.50218623	    -12.96304545	      0.00000000	     21.89947829	     14.94907224	    -10.26486435	      0.27583519	      0.00481423	     13.05118605	      7.11505308	      0.00000000	      0.64272440	     -2.89666281	      7.94211785	      1.19360349	     -3.85256154	      8.43850021	      1.05593192	     -7.04294597	      8.43850021	      0.73456972	     -7.04294597	      6.94935311	      0.59683388	     -5.90687481	      6.45297075	      0.36725272	     -4.48693070	      5.95658838	      4.59091613	    -32.76762909	     44.17167682	      0.00000000	      0.00000000	     17.05835433	    -39.72409342	     43.28621732	    195.04080970	     83.32264716	     85.33147521	      0.03181434	     27.44850900	    -69.95498581	     34.83567835	     34.62556414	     -4.36752925	    -24.79565709	    149.94983307	     44.69380886	     38.13470209	    -16.51066819
      1.78431373	    -27.76547061	    -26.49480706	     74.46509833	      0.09654077	      0.99599364	      0.43274321	     24.43588206	    -16.94233448	     26.48142394	      0.26353693	      0.00459959	     28.36092832	    -12.86633764	      0.00000000	     22.27549479	     14.62264200	    -10.90420172	      0.27530180	      0.00480492	     13.32834606	      7.59938996	      0.00000000	      0.65916461	     -2.90752937	      8.09602880	      1.22413459	     -3.86701406	      8.60203060	      1.08294153	     -7.06936691	      8.60203060	      0.75335923	     -7.06936691	      7.08402520	      0.61210025	     -5.92903389	      6.57802340	      0.37664666	     -4.50376300	      6.07202160	      4.70834687	    -32.89055375	     45.02768335	      0.00000000	      0.00000000	     16.94214058	    -40.06026276	     42.57620061	    199.00257167	     83.67345665	     80.24156164	      0.03209513	     28.32324450	    -69.95436538	     34.83502659	     34.80675317	     -4.07500190	    -24.23581885	    149.95109095	     44.76332916	     38.84303952	    -16.98242109
      1.80392157	    -27.52334793	    -26.89627079	     74.44568169	      0.09587386	      0.99587069	      0.43171634	     24.72966721	    -16.62692268	     26.28576215	      0.27364396	      0.00477599	     28.24937040	    -12.69671054	      0.00000000	     22.56232277	     14.31753544	    -11.14404716	      0.27518212	      0.00480283	     13.62064201	      7.80304153	      0.00000000	      0.67096938	     -2.91353602	      8.24389459	      1.24605723	     -3.87500291	      8.75913800	      1.10233559	     -7.08397148	      8.75913800	      0.76685090	     -7.08397148	      7.21340776	      0.62306216	     -5.94128265	      6.69816435	      0.38339190	     -4.51306730	      6.18292094	      4.79266717	    -32.95850218	     45.85006853	      0.00000000	      0.00000000	     16.64758224	    -40.33477469	     41.82750791	    202.52772919	     83.91828510	     75.75373287	      0.03241392	     29.25045339	    -69.95367764	     34.83395966	     34.84659557	     -3.67261536	    -23.77291090	    149.95203870	     44.81607555	     39.62938161	    -17.54926929
      1.82352941	    -27.42788727	    -27.08864946	     74.53615304	      0.09558285	      0.99580869	      0.43118652	     24.83920710	    -16.53752206	     26.19637239	      0.28611508	      0.00499365	     28.28583475	    -12.71594476	      0.00000000	     22.68361440	     14.22034778	    -11.11756591	      0.27714524	      0.00483710	     13.76500659	      7.82912529	      0.00000000	      0.66654566	     -2.92856810	      8.30604642	      1.23784194	     -3.89499557	      8.82517432	      1.09506786	     -7.12052048	      8.82517432	      0.76179503	     -7.12052048	      7.26779062	      0.61895430	     -5.97193607	      6.74866272	      0.38086419	     -4.53635199	      6.22953482	      4.76106898	    -33.12854806	     46.19573837	      0.00000000	      0.00000000	     16.46160173	    -40.49373704	     41.13926374	    203.04196875	     83.96584486	     75.77091424	      0.03270479	     29.42408477	    -69.95315993	     34.83296956	     34.89045859	     -3.45821623	    -23.67292646	    149.95217992	     44.68094900	     40.09330227	    -17.90153273
      1.84313725	    -27.29705642	    -27.37518914	     74.48358792	      0.09507912	      0.99560657	      0.43034834	     25.05589505	    -16.35483812	     26.06636607	      0.29209484	      0.00509802	     28.27274636	    -12.63535337	      0.00000000	     22.89302056	     14.03478246	    -11.07122677	      0.27689809	      0.00483278	     14.03327484	      7.89966226	      0.00000000	      0.69373887	     -2.93385394	      8.40475498	      1.28834245	     -3.90202573	      8.93005217	      1.13974359	     -7.13337246	      8.93005217	      0.79287415	     -7.13337246	      7.35416061	      0.64420591	     -5.98271495	      6.82886343	      0.39640239	     -4.54453975	      6.30356624	      4.95530737	    -33.18834249	     46.74472580	      0.00000000	      0.00000000	     16.43762484	    -40.81637114	     40.44763262	    203.63595388	     84.03203225	     75.15525655	      0.03292002	     29.49868174	    -69.95277611	     34.83071394	     34.69160910	     -3.28403192	    -23.71506569	    149.95189471	     44.52292825	     40.96534042	    -18.46262592
      1.86274510	    -27.26866887	    -27.57039382	     74.52590429	      0.09482123	      0.99545416	      0.42925504	     25.15287117	    -16.32337473	     25.91353260	      0.30256988	      0.00528084	     28.34265060	    -12.67004001	      0.00000000	     23.00115491	     13.99294807	    -10.89000481	      0.27639380	      0.00482398	     14.22642778	      8.03307843	      0.00000000	      0.69614934	     -2.95544700	      8.47717678	      1.29281894	     -3.93074452	      9.00700033	      1.14370375	     -7.18587385	      9.00700033	      0.79562908	     -7.18587385	      7.41752968	      0.64644428	     -6.02674753	      6.88770614	      0.39777973	     -4.57798741	      6.35788259	      4.97252514	    -33.43260760	     47.14751411	      0.00000000	      0.00000000	     16.47788874	    -40.85667752	     40.16963496	    203.95760576	     84.04697991	     74.89544075	      0.03323220	     29.55566097	    -69.95247406	     34.82982860	     34.64543508	     -3.13037257	    -24.00448124	    149.95206323	     44.32496954	     41.27286658	    -18.83199699
      1.88235294	    -26.79462999	    -28.17776183	     74.55603891	      0.09342448	      0.99531352	      0.42740132	     25.50915257	    -15.81572580	     24.89258064	      0.30671892	      0.00535326	     28.30509670	    -11.46901926	      0.00000000	     23.38066031	     13.48035109	    -10.76493810	      0.27673500	      0.00482994	     14.60331108	      8.30139206	      0.00000000	      0.74967863	     -2.93148129	      8.63852482	      1.39222818	     -3.89887012	      9.17843263	      1.23164702	     -7.12760362	      9.17843263	      0.85680770	     -7.12760362	      7.55870922	      0.69615157	     -5.97787665	      7.01880142	      0.42836637	     -4.54086452	      6.47889362	      5.35487946	    -33.16150268	     48.04488352	      0.00000000	      0.00000000	     16.40926720	    -40.88386670	     40.44320272	    212.27705749	     84.25810920	     63.03503414	      0.03337436	     30.97952750	    -69.95199553	     34.83099691	     34.32799423	     -2.88214484	    -24.27462955	    149.95326921	     44.40493054	     42.94450403	    -19.53160176
      1.90196078	    -26.72974244	    -28.34686624	     74.76022460	      0.09301232	      0.99516443	      0.42599015	     25.48546052	    -15.84526199	     24.78674219	      0.29602934	      0.00516669	     28.36924280	    -11.54633402	      0.00000000	     23.41902218	     13.49546647	    -10.61943794	      0.27608725	      0.00481863	     14.66170976	      8.39793427	      0.00000000	      0.74477341	     -2.94996178	      8.70542122	      1.38311870	     -3.92344917	      9.24951004	      1.22358824	     -7.17253707	      9.24951004	      0.85120153	     -7.17253707	      7.61724356	      0.69159659	     -6.01556206	      7.07315474	      0.42556353	     -4.56949080	      6.52906591	      5.31984200	    -33.37055766	     48.41694117	      0.00000000	      0.00000000	     16.37670787	    -40.81034076	     40.36698170	    212.30933550	     84.31084480	     62.98531975	      0.03360251	     30.95521322	    -69.95191391	     34.83087118	     34.37872398	     -2.86481432	    -24.34965278	    149.95305280	     44.38445166	     43.05237879	    -19.60504345
      1.92156863	    -26.03043506	    -28.92348485	     75.29144347	      0.09135673	      0.99521509	      0.42359433	     25.56737615	    -15.31333090	     23.47630920	      0.29623799	      0.00517033	     28.12641029	    -11.02933408	      0.00000000	     23.61344688	     12.94740113	     -9.27600786	      0.27064962	      0.00472373	     14.94799090	      8.11868958	      0.00000000	      0.79840088	     -2.90890867	      8.82890180	      1.48271028	     -3.86884853	      9.38070817	      1.31169281	     -7.07272053	      9.38070817	      0.91249237	     -7.07272053	      7.72528908	      0.74139506	     -5.93184655	      7.17348272	      0.45620626	     -4.50589953	      6.62167635	      5.70289765	    -32.90615662	     49.10370316	      0.00000000	      0.00000000	     15.05528797	    -40.08396973	     40.48528590	    219.63153471	     84.51688978	     52.74655987	      0.03359504	     31.18738157	    -69.95171880	     34.83264943	     34.15242290	     -2.39828495	    -24.16939711	    149.95395861	     44.45782697	     44.44594780	    -19.79888969
      1.94117647	    -26.02133846	    -28.99543339	     75.35809946	      0.09134889	      0.99522035	      0.42239370	     25.51642344	    -15.32931742	     23.33726998	      0.29255456	      0.00510604	     28.07182482	    -11.09619335	      0.00000000	     23.59728989	     12.95273509	     -9.08826285	      0.27105422	      0.00473079	     14.91891007	      8.25233810	      0.00000000	      0.80325977	     -2.91969052	      8.87085151	      1.49173372	     -3.88318839	      9.42527973	      1.31967547	     -7.09893552	      9.42527973	      0.91804559	     -7.09893552	      7.76199507	      0.74590702	     -5.95383290	      7.20756685	      0.45898263	     -4.52260061	      6.65313863	      5.73760420	    -33.02812307	     49.33701484	      0.00000000	      0.00000000	     14.93691787	    -39.96680419	     40.44311174	    219.44453370	     84.61857721	     52.53068753	      0.03366620	     31.06682972	    -69.95178170	     34.83378811	     34.28359357	     -2.52844635	    -24.36236409	    149.95384024	     44.47368535	     44.53175086	    -19.79250145
